<svg width="32" height="32" viewBox="0 0 32 32" fill="none" xmlns="http://www.w3.org/2000/svg">
<path fill-rule="evenodd" clip-rule="evenodd" d="M0 16C0 7.16479 7.16479 0 16 0C24.8352 0 32 7.16479 32 16C32 24.8352 24.8352 32 16 32C7.16479 32 0 24.8352 0 16ZM20.3931 25.9375C21.8804 25.9375 23.2783 25.3591 24.3303 24.3066C25.3826 23.2554 25.9614 21.8564 25.9617 20.3689C25.9617 19.4187 25.7168 18.4849 25.2563 17.6592C25.3591 17.0994 25.4131 16.5264 25.4131 15.9539C25.4131 14.6838 25.1646 13.4519 24.6733 12.292C24.1995 11.1716 23.5215 10.1655 22.657 9.30151C21.7937 8.43774 20.7869 7.75952 19.667 7.28564C18.5076 6.79517 17.2754 6.54639 16.0056 6.54639C15.407 6.54639 14.8076 6.60278 14.2241 6.7146C14.2233 6.71493 14.2223 6.71503 14.2212 6.71514C14.2207 6.7152 14.2202 6.71525 14.2197 6.71533C13.4194 6.28979 12.519 6.0625 11.6079 6.0625C10.1204 6.0625 8.72168 6.64185 7.66968 7.69409C6.61816 8.74585 6.03857 10.1445 6.03857 11.6321C6.03857 12.5791 6.28198 13.5098 6.73926 14.3323C6.64648 14.8652 6.59766 15.4099 6.59766 15.9539C6.59766 17.2241 6.84619 18.4558 7.3374 19.616C7.81079 20.7366 8.48901 21.7422 9.35254 22.606C10.217 23.47 11.2227 24.1489 12.3438 24.6216C13.5032 25.113 14.7356 25.3621 16.0056 25.3621C16.5583 25.3621 17.1123 25.3115 17.6531 25.2156C18.4863 25.687 19.4297 25.9375 20.3931 25.9375ZM15.5771 14.3718L17.7773 14.8601C20.1877 15.3972 20.7988 16.8044 20.7988 18.1299C20.7988 20.1826 19.2231 21.7153 16.0432 21.7153C12.7009 21.7153 11.2058 20.072 11.2058 18.8406C11.2058 18.209 11.6721 17.7664 12.3147 17.7664C12.9192 17.7664 13.202 18.1332 13.5286 18.5568C13.9747 19.1355 14.5024 19.8201 16.0432 19.8201C17.4094 19.8201 18.1636 19.0784 18.1636 18.3191C18.1636 17.8625 17.9385 17.3564 17.0388 17.1348L14.0662 16.3926C11.6721 15.7922 11.2375 14.498 11.2375 13.2815C11.2375 10.7554 13.616 9.80688 15.8494 9.80688C17.9067 9.80688 20.332 10.9441 20.332 12.4595C20.332 13.1089 19.7698 13.4866 19.1274 13.4866C18.6229 13.4866 18.3652 13.1979 18.0629 12.8591C17.6339 12.3784 17.115 11.7969 15.6726 11.7969C14.4526 11.7969 13.7769 12.3494 13.7769 13.1401C13.7769 13.9292 14.7402 14.1812 15.5771 14.3718Z" fill="white"/>
</svg>
